# xmcd CD database file
#
# Track frame offsets:
#	150
#	22677
#	46127
#
# Disc length: 915 seconds
#
# Revision: 7
# Processed by: cddbd v1.5.1PL2 Copyright (c) Steve Scherf et al.
# Submitted via: CDex 1.60beta1-cs1
#
DISCID=13039103
DTITLE=知念里奈 - DO-DO FOR ME
DYEAR=1996
DGENRE=JPop
TTITLE0=DO-DO FOR ME
TTITLE1=black paradise
TTITLE2=DO-DO FOR ME (Backing Track)
EXTD=YEAR: 1996
EXTT0=
EXTT1=
EXTT2=
PLAYORDER=
